<svg preserveAspectRatio="none" overflow="visible" style="display: block;" width="52" height="52" viewBox="0 0 52 52" fill="none" xmlns="http://www.w3.org/2000/svg">
<g id="Frame">
<path id="Vector" d="M46 41.0553C46 41.6043 45.9046 42.1173 45.7137 42.5941C45.5228 43.071 45.2511 43.49 44.8987 43.8513C44.5463 44.2125 44.1351 44.4943 43.6652 44.6966C43.1953 44.8989 42.6814 45 42.1233 45H10.141C9.58297 45 9.05433 44.8989 8.55507 44.6966C8.0558 44.4943 7.61527 44.2125 7.23348 43.8513C6.85169 43.49 6.55066 43.071 6.3304 42.5941C6.11013 42.1173 6 41.6043 6 41.0553V19.4242C6 18.326 6.38913 17.394 7.1674 16.6282C7.94567 15.8624 8.8928 15.4795 10.0088 15.4795H41.9912C43.1072 15.4795 44.0543 15.8624 44.8326 16.6282C45.6109 17.394 46 18.326 46 19.4242V25.3196H36C34.884 25.3196 33.9369 25.6953 33.1586 26.4467C32.3803 27.1981 31.9912 28.1229 31.9912 29.221C32.0206 29.9724 32.1821 30.6371 32.4758 31.2151C32.7107 31.7064 33.0999 32.1543 33.6432 32.5589C34.1865 32.9635 34.9721 33.1658 36 33.1658H46V41.0553ZM40.0088 13.4854H20.0088C21.5947 12.6762 23.0925 11.8959 24.5022 11.1446C25.7357 10.5088 26.9545 9.873 28.1586 9.23722C29.3627 8.60144 30.3025 8.11015 30.978 7.76336C32.0059 7.21428 32.9236 6.96141 33.7313 7.00476C34.5389 7.04811 35.2217 7.18538 35.7797 7.41657C36.4258 7.73446 36.9838 8.1535 37.4537 8.67369L40.0088 13.4854ZM34.0176 29.221C34.0176 28.6719 34.2085 28.2096 34.5903 27.8339C34.9721 27.4582 35.442 27.2703 36 27.2703C36.558 27.2703 37.0279 27.4582 37.4097 27.8339C37.7915 28.2096 37.9824 28.6719 37.9824 29.221C37.9824 29.7701 37.7915 30.2397 37.4097 30.6299C37.0279 31.02 36.558 31.2151 36 31.2151C35.442 31.2151 34.9721 31.02 34.5903 30.6299C34.2085 30.2397 34.0176 29.7701 34.0176 29.221Z" fill="white"/>
</g>
</svg>
